<mxfile host="app.diagrams.net" modified="2023-06-15T05:10:41.138Z" agent="Mozilla/5.0 (Macintosh; Intel Mac OS X 10_15_7) AppleWebKit/537.36 (KHTML, like Gecko) Chrome/114.0.0.0 Safari/537.36" etag="-18Nx2kgOEs6cmbKhKVc" version="21.3.7" type="github">
  <diagram name="第 1 页" id="WnKNG6_DYxE4EP30FGyO">
    <mxGraphModel dx="1026" dy="518" grid="1" gridSize="10" guides="1" tooltips="1" connect="1" arrows="1" fold="1" page="1" pageScale="1" pageWidth="827" pageHeight="1169" math="0" shadow="0">
      <root>
        <mxCell id="0" />
        <mxCell id="1" parent="0" />
        <mxCell id="tbXObs1JxIp5LCsgutEW-89" value="" style="rounded=0;whiteSpace=wrap;html=1;fillColor=#d5e8d4;strokeColor=#82b366;fillStyle=auto;gradientColor=#97d077;gradientDirection=north;movable=1;resizable=1;rotatable=1;deletable=1;editable=1;locked=0;connectable=1;container=0;direction=east;" vertex="1" parent="1">
          <mxGeometry x="180" y="320" width="55" height="20" as="geometry" />
        </mxCell>
        <mxCell id="tbXObs1JxIp5LCsgutEW-122" value="" style="rounded=0;whiteSpace=wrap;html=1;fillColor=#dae8fc;strokeColor=#6c8ebf;fillStyle=auto;gradientColor=#7ea6e0;gradientDirection=north;movable=1;resizable=1;rotatable=1;deletable=1;editable=1;locked=0;connectable=1;container=0;direction=east;" vertex="1" parent="1">
          <mxGeometry x="235" y="320" width="55" height="20" as="geometry" />
        </mxCell>
        <mxCell id="tbXObs1JxIp5LCsgutEW-124" value="" style="rounded=0;whiteSpace=wrap;html=1;fillColor=#ffcd28;strokeColor=#d79b00;fillStyle=auto;gradientColor=#ffa500;gradientDirection=north;movable=1;resizable=1;rotatable=1;deletable=1;editable=1;locked=0;connectable=1;container=0;direction=east;" vertex="1" parent="1">
          <mxGeometry x="280" y="320" width="55" height="20" as="geometry" />
        </mxCell>
        <mxCell id="tbXObs1JxIp5LCsgutEW-125" value="" style="rounded=0;whiteSpace=wrap;html=1;fillColor=#f8cecc;strokeColor=#b85450;fillStyle=auto;gradientColor=#ea6b66;gradientDirection=north;movable=1;resizable=1;rotatable=1;deletable=1;editable=1;locked=0;connectable=1;container=0;direction=east;" vertex="1" parent="1">
          <mxGeometry x="335" y="320" width="55" height="20" as="geometry" />
        </mxCell>
        <mxCell id="tbXObs1JxIp5LCsgutEW-105" value="Dpu Core" style="rounded=0;whiteSpace=wrap;html=1;fillColor=#cce5ff;strokeColor=#36393d;" vertex="1" parent="1">
          <mxGeometry x="488.1927710843373" y="425" width="63.6144578313253" height="60" as="geometry" />
        </mxCell>
        <mxCell id="tbXObs1JxIp5LCsgutEW-106" value="Send&lt;br&gt;Buffer" style="rounded=0;whiteSpace=wrap;html=1;fillColor=#dae8fc;strokeColor=#6c8ebf;" vertex="1" parent="1">
          <mxGeometry x="551.8072289156627" y="425" width="48.19277108433735" height="60" as="geometry" />
        </mxCell>
        <mxCell id="tbXObs1JxIp5LCsgutEW-107" value="Recv&lt;br&gt;Buffer" style="rounded=0;whiteSpace=wrap;html=1;fillColor=#dae8fc;strokeColor=#6c8ebf;" vertex="1" parent="1">
          <mxGeometry x="440" y="425" width="48.19277108433735" height="60" as="geometry" />
        </mxCell>
        <mxCell id="tbXObs1JxIp5LCsgutEW-116" value="Dpu Core" style="rounded=0;whiteSpace=wrap;html=1;fillColor=#FF9999;strokeColor=#36393d;" vertex="1" parent="1">
          <mxGeometry x="492.1927710843373" y="525" width="63.6144578313253" height="60" as="geometry" />
        </mxCell>
        <mxCell id="tbXObs1JxIp5LCsgutEW-117" value="Send&lt;br&gt;Buffer" style="rounded=0;whiteSpace=wrap;html=1;fillColor=#f8cecc;strokeColor=#b85450;" vertex="1" parent="1">
          <mxGeometry x="555.8072289156627" y="525" width="48.19277108433735" height="60" as="geometry" />
        </mxCell>
        <mxCell id="tbXObs1JxIp5LCsgutEW-118" value="Recv&lt;br&gt;Buffer" style="rounded=0;whiteSpace=wrap;html=1;fillColor=#f8cecc;strokeColor=#b85450;" vertex="1" parent="1">
          <mxGeometry x="444" y="525" width="48.19277108433735" height="60" as="geometry" />
        </mxCell>
        <mxCell id="tbXObs1JxIp5LCsgutEW-100" value="Dpu Core" style="rounded=0;whiteSpace=wrap;html=1;fillColor=#cdeb8b;strokeColor=#36393d;" vertex="1" parent="1">
          <mxGeometry x="308.1927710843373" y="425" width="63.6144578313253" height="60" as="geometry" />
        </mxCell>
        <mxCell id="tbXObs1JxIp5LCsgutEW-101" value="Send&lt;br&gt;Buffer" style="rounded=0;whiteSpace=wrap;html=1;fillColor=#d5e8d4;strokeColor=#82b366;" vertex="1" parent="1">
          <mxGeometry x="371.8072289156627" y="425" width="48.19277108433735" height="60" as="geometry" />
        </mxCell>
        <mxCell id="tbXObs1JxIp5LCsgutEW-102" value="Recv&lt;br&gt;Buffer" style="rounded=0;whiteSpace=wrap;html=1;fillColor=#d5e8d4;strokeColor=#82b366;" vertex="1" parent="1">
          <mxGeometry x="260" y="425" width="48.19277108433735" height="60" as="geometry" />
        </mxCell>
        <mxCell id="tbXObs1JxIp5LCsgutEW-111" value="Dpu Core" style="rounded=0;whiteSpace=wrap;html=1;fillColor=#ffcc99;strokeColor=#36393d;" vertex="1" parent="1">
          <mxGeometry x="308.1927710843373" y="525" width="63.6144578313253" height="60" as="geometry" />
        </mxCell>
        <mxCell id="tbXObs1JxIp5LCsgutEW-112" value="Send&lt;br&gt;Buffer" style="rounded=0;whiteSpace=wrap;html=1;fillColor=#ffe6cc;strokeColor=#d79b00;" vertex="1" parent="1">
          <mxGeometry x="371.8072289156627" y="525" width="48.19277108433735" height="60" as="geometry" />
        </mxCell>
        <mxCell id="tbXObs1JxIp5LCsgutEW-113" value="Recv&lt;br&gt;Buffer" style="rounded=0;whiteSpace=wrap;html=1;fillColor=#ffe6cc;strokeColor=#d79b00;" vertex="1" parent="1">
          <mxGeometry x="260" y="525" width="48.19277108433735" height="60" as="geometry" />
        </mxCell>
        <mxCell id="tbXObs1JxIp5LCsgutEW-134" value="" style="rounded=0;whiteSpace=wrap;html=1;fillColor=#d5e8d4;strokeColor=#82b366;fillStyle=auto;gradientColor=#97d077;gradientDirection=south;movable=1;resizable=1;rotatable=1;deletable=1;editable=1;locked=0;connectable=1;container=0;direction=east;" vertex="1" parent="1">
          <mxGeometry x="470.9" y="320" width="55" height="20" as="geometry" />
        </mxCell>
        <mxCell id="tbXObs1JxIp5LCsgutEW-135" value="" style="rounded=0;whiteSpace=wrap;html=1;fillColor=#dae8fc;strokeColor=#6c8ebf;fillStyle=auto;gradientColor=#7ea6e0;gradientDirection=south;movable=1;resizable=1;rotatable=1;deletable=1;editable=1;locked=0;connectable=1;container=0;direction=east;" vertex="1" parent="1">
          <mxGeometry x="525.9" y="320" width="55" height="20" as="geometry" />
        </mxCell>
        <mxCell id="tbXObs1JxIp5LCsgutEW-136" value="" style="rounded=0;whiteSpace=wrap;html=1;fillColor=#ffcd28;strokeColor=#d79b00;fillStyle=auto;gradientColor=#ffa500;gradientDirection=south;movable=1;resizable=1;rotatable=1;deletable=1;editable=1;locked=0;connectable=1;container=0;direction=east;" vertex="1" parent="1">
          <mxGeometry x="570.9" y="320" width="55" height="20" as="geometry" />
        </mxCell>
        <mxCell id="tbXObs1JxIp5LCsgutEW-137" value="" style="rounded=0;whiteSpace=wrap;html=1;fillColor=#f8cecc;strokeColor=#b85450;fillStyle=auto;gradientColor=#ea6b66;gradientDirection=south;movable=1;resizable=1;rotatable=1;deletable=1;editable=1;locked=0;connectable=1;container=0;direction=east;" vertex="1" parent="1">
          <mxGeometry x="625.9" y="320" width="55" height="20" as="geometry" />
        </mxCell>
        <mxCell id="tbXObs1JxIp5LCsgutEW-138" value="" style="shape=flexArrow;endArrow=classic;html=1;rounded=0;endWidth=18;endSize=8.13;width=18;fillColor=#eeeeee;strokeColor=#36393d;" edge="1" parent="1">
          <mxGeometry width="50" height="50" relative="1" as="geometry">
            <mxPoint x="283.6" y="350" as="sourcePoint" />
            <mxPoint x="284" y="410" as="targetPoint" />
          </mxGeometry>
        </mxCell>
        <mxCell id="tbXObs1JxIp5LCsgutEW-139" value="&lt;b&gt;Scatter&lt;/b&gt;" style="edgeLabel;html=1;align=center;verticalAlign=middle;resizable=0;points=[];" vertex="1" connectable="0" parent="tbXObs1JxIp5LCsgutEW-138">
          <mxGeometry x="-0.0493" y="3" relative="1" as="geometry">
            <mxPoint x="-3" y="-9" as="offset" />
          </mxGeometry>
        </mxCell>
        <mxCell id="tbXObs1JxIp5LCsgutEW-140" value="" style="shape=flexArrow;endArrow=classic;html=1;rounded=0;endWidth=18;endSize=8.13;width=18;fillColor=#eeeeee;strokeColor=#36393d;" edge="1" parent="1">
          <mxGeometry width="50" height="50" relative="1" as="geometry">
            <mxPoint x="581" y="410" as="sourcePoint" />
            <mxPoint x="580.9" y="350" as="targetPoint" />
          </mxGeometry>
        </mxCell>
        <mxCell id="tbXObs1JxIp5LCsgutEW-141" value="&lt;b&gt;Gather&lt;/b&gt;" style="edgeLabel;html=1;align=center;verticalAlign=middle;resizable=0;points=[];" vertex="1" connectable="0" parent="tbXObs1JxIp5LCsgutEW-140">
          <mxGeometry x="-0.0493" y="3" relative="1" as="geometry">
            <mxPoint x="4" y="14" as="offset" />
          </mxGeometry>
        </mxCell>
        <mxCell id="tbXObs1JxIp5LCsgutEW-142" value="State P&lt;sub&gt;i&lt;/sub&gt;" style="rounded=0;whiteSpace=wrap;html=1;" vertex="1" parent="1">
          <mxGeometry x="180" y="240" width="210" height="30" as="geometry" />
        </mxCell>
        <mxCell id="tbXObs1JxIp5LCsgutEW-143" value="State P&lt;sub&gt;i+1&lt;/sub&gt;" style="rounded=0;whiteSpace=wrap;html=1;" vertex="1" parent="1">
          <mxGeometry x="470.9" y="240" width="210" height="30" as="geometry" />
        </mxCell>
      </root>
    </mxGraphModel>
  </diagram>
</mxfile>
